<svg width="24" height="25" viewBox="0 0 24 25" fill="none" xmlns="http://www.w3.org/2000/svg">
<path d="M22.0731 3.43753L21.6577 3.71585V3.71585L22.0731 3.43753ZM22.0731 17.7587L21.6577 17.4803L22.0731 17.7587ZM20.5556 19.2719L20.8329 19.688L20.5556 19.2719ZM14.75 20.1943L14.7478 19.6943C14.4725 19.6955 14.25 19.919 14.25 20.1943H14.75ZM14.75 20.1962L15.197 20.4203C15.2318 20.3507 15.25 20.274 15.25 20.1962H14.75ZM12.8939 23.898L12.447 23.6739L12.8939 23.898ZM11.1061 23.898L10.6591 24.1221L11.1061 23.898ZM9.25 20.1962H8.75C8.75 20.274 8.76816 20.3507 8.80303 20.4203L9.25 20.1962ZM9.25 20.1943H9.75C9.75 19.919 9.52746 19.6955 9.25217 19.6943L9.25 20.1943ZM3.44436 19.2719L3.16712 19.688L3.44436 19.2719ZM1.92692 17.7587L2.34229 17.4803L1.92692 17.7587ZM1.92692 3.43753L2.34229 3.71585L1.92692 3.43753ZM3.44436 1.92433L3.16712 1.50823L3.44436 1.92433ZM20.5556 1.92433L20.8329 1.50823L20.5556 1.92433ZM23.5 10.5981C23.5 8.68279 23.5006 7.20858 23.3816 6.04152C23.2616 4.86605 23.0162 3.94681 22.4885 3.15921L21.6577 3.71585C22.0569 4.3116 22.2749 5.04691 22.3867 6.14301C22.4994 7.24753 22.5 8.66192 22.5 10.5981H23.5ZM22.4885 18.037C23.0162 17.2494 23.2616 16.3301 23.3816 15.1547C23.5006 13.9876 23.5 12.5134 23.5 10.5981H22.5C22.5 12.5343 22.4994 13.9487 22.3867 15.0532C22.2749 16.1493 22.0569 16.8846 21.6577 17.4803L22.4885 18.037ZM20.8329 19.688C21.488 19.2514 22.0506 18.6905 22.4885 18.037L21.6577 17.4803C21.293 18.0246 20.8244 18.492 20.2784 18.8558L20.8329 19.688ZM14.7522 20.6943C16.2332 20.6879 17.4129 20.6596 18.3792 20.5264C19.3535 20.3921 20.1434 20.1474 20.8329 19.688L20.2784 18.8558C19.7561 19.2038 19.1265 19.4139 18.2427 19.5357C17.3508 19.6587 16.2336 19.6879 14.7478 19.6943L14.7522 20.6943ZM15.25 20.1962V20.1943H14.25V20.1962H15.25ZM13.3409 24.1221L15.197 20.4203L14.303 19.9721L12.447 23.6739L13.3409 24.1221ZM10.6591 24.1221C11.2124 25.2256 12.7876 25.2256 13.3409 24.1221L12.447 23.6739C12.2625 24.0417 11.7375 24.0417 11.553 23.6739L10.6591 24.1221ZM8.80303 20.4203L10.6591 24.1221L11.553 23.6739L9.69696 19.9721L8.80303 20.4203ZM8.75 20.1943V20.1962H9.75V20.1943H8.75ZM3.16712 19.688C3.85664 20.1474 4.64649 20.3921 5.62079 20.5264C6.5871 20.6596 7.76677 20.6879 9.24782 20.6943L9.25217 19.6943C7.76638 19.6879 6.64917 19.6587 5.75734 19.5357C4.87349 19.4139 4.24394 19.2038 3.72161 18.8558L3.16712 19.688ZM1.51154 18.037C1.9494 18.6905 2.51199 19.2514 3.16712 19.688L3.72161 18.8558C3.17565 18.492 2.70697 18.0246 2.34229 17.4803L1.51154 18.037ZM0.5 10.5981C0.5 12.5134 0.499392 13.9876 0.618446 15.1547C0.73836 16.3301 0.983807 17.2494 1.51154 18.037L2.34229 17.4803C1.94311 16.8846 1.7251 16.1493 1.61328 15.0532C1.50061 13.9487 1.5 12.5343 1.5 10.5981H0.5ZM1.51154 3.15921C0.983807 3.94681 0.73836 4.86605 0.618446 6.04152C0.499392 7.20858 0.5 8.68279 0.5 10.5981H1.5C1.5 8.66192 1.50061 7.24753 1.61328 6.14301C1.7251 5.04691 1.94311 4.3116 2.34229 3.71585L1.51154 3.15921ZM3.16712 1.50823C2.51199 1.94475 1.9494 2.50573 1.51154 3.15921L2.34229 3.71585C2.70697 3.17159 3.17565 2.7042 3.72161 2.34042L3.16712 1.50823ZM10.625 0.5C8.70424 0.5 7.22614 0.499399 6.05608 0.618094C4.87773 0.737629 3.9565 0.982258 3.16712 1.50823L3.72161 2.34042C4.31946 1.94207 5.05741 1.72453 6.157 1.61299C7.26488 1.5006 8.68349 1.5 10.625 1.5V0.5ZM13.375 0.5H10.625V1.5H13.375V0.5ZM20.8329 1.50823C20.0435 0.982258 19.1223 0.737629 17.9439 0.618094C16.7739 0.499399 15.2958 0.5 13.375 0.5V1.5C15.3165 1.5 16.7351 1.5006 17.843 1.61299C18.9426 1.72453 19.6805 1.94207 20.2784 2.34042L20.8329 1.50823ZM22.4885 3.15921C22.0506 2.50573 21.488 1.94475 20.8329 1.50823L20.2784 2.34042C20.8244 2.7042 21.293 3.17159 21.6577 3.71585L22.4885 3.15921Z" fill="#5A5A5A"/>
<ellipse cx="17.5" cy="10.5981" rx="1.375" ry="1.37116" fill="#5A5A5A"/>
<ellipse cx="12" cy="10.5981" rx="1.375" ry="1.37116" fill="#5A5A5A"/>
<ellipse cx="6.5" cy="10.5981" rx="1.375" ry="1.37116" fill="#5A5A5A"/>
</svg>
