<svg width="24" height="22" viewBox="0 0 24 22" fill="none" xmlns="http://www.w3.org/2000/svg">
<path fill-rule="evenodd" clip-rule="evenodd" d="M2.00009 9.81693C2.00009 14.0336 5.64076 17.6339 10.3624 17.6339C12.4993 17.6339 14.4147 16.8965 15.8715 15.6983C15.9128 15.5408 15.9931 15.3913 16.1129 15.2648C16.2618 15.1076 16.4496 15.0094 16.6471 14.971C17.9481 13.5804 18.7247 11.7644 18.7247 9.81693C18.7247 5.60027 15.0841 2 10.3624 2C5.64076 2 2.00009 5.60027 2.00009 9.81693ZM18.3808 16.0358C19.8456 14.3426 20.7247 12.177 20.7247 9.81693C20.7247 4.39519 16.0854 0 10.3624 0C4.63946 0 9.15527e-05 4.39519 9.15527e-05 9.81693C9.15527e-05 15.2387 4.63946 19.6339 10.3624 19.6339C12.8536 19.6339 15.1395 18.801 16.9267 17.4133L21.3323 21.5869C21.7332 21.9668 22.3661 21.9497 22.746 21.5487C23.1258 21.1478 23.1087 20.5149 22.7078 20.135L18.3808 16.0358Z" fill="#ced1d7"/>
</svg>
