<svg width="19" height="18" viewBox="0 0 19 18" fill="none" xmlns="http://www.w3.org/2000/svg">
<path fill-rule="evenodd" clip-rule="evenodd" d="M16.4032 1.03239C15.9795 1.1079 15.4005 1.29971 14.5565 1.58131L5.87476 4.47809C4.37255 4.97932 3.27902 5.34471 2.51259 5.67886C1.71646 6.02596 1.42036 6.28212 1.32545 6.48218C1.1324 6.88908 1.1324 7.3612 1.32545 7.7681C1.42036 7.96814 1.71651 8.22434 2.51288 8.57152C3.27952 8.90574 4.37336 9.27123 5.87597 9.77259C5.89967 9.7805 5.92306 9.7883 5.94613 9.79599C6.47583 9.97251 6.8424 10.0947 7.14923 10.314C7.3737 10.4744 7.57006 10.6709 7.73036 10.8954C7.94947 11.2024 8.07139 11.569 8.24756 12.0987C8.25524 12.1217 8.26301 12.1451 8.27091 12.1688C8.77092 13.6703 9.13544 14.7634 9.46875 15.5297C9.81501 16.3258 10.0705 16.6221 10.2699 16.7172C10.6784 16.912 11.153 16.912 11.5614 16.7172C11.7607 16.6221 12.0163 16.3258 12.3626 15.5296C12.6959 14.7633 13.0605 13.6701 13.5605 12.1684L16.4543 3.47851C16.7354 2.63426 16.9269 2.05502 17.0022 1.63119C17.0781 1.2037 17.0031 1.10663 16.9654 1.06892C16.9276 1.0312 16.8305 0.956241 16.4032 1.03239ZM16.2278 0.0479018C16.7375 -0.0429362 17.2729 -0.0375578 17.6723 0.361606C18.0717 0.760788 18.0774 1.29621 17.9868 1.80606C17.8971 2.31091 17.6809 2.9602 17.4167 3.75356L17.4031 3.79446L14.5093 12.4843L14.5003 12.5114C14.0111 13.9805 13.6329 15.1163 13.2796 15.9285C12.9371 16.7158 12.5604 17.3486 11.9919 17.6197C11.3111 17.9445 10.5202 17.9445 9.83938 17.6197C9.27094 17.3486 8.8942 16.7159 8.55174 15.9286C8.19849 15.1165 7.82032 13.9808 7.33114 12.5118L7.32213 12.4848C7.11333 11.8578 7.03721 11.6456 6.91644 11.4764C6.82026 11.3417 6.70245 11.2238 6.56777 11.1275C6.39865 11.0067 6.18648 10.9304 5.55946 10.7212L5.5323 10.7121C4.06232 10.2216 2.92583 9.84244 2.11325 9.48819C1.3254 9.14473 0.692435 8.76681 0.421974 8.19674C0.100227 7.51857 0.100227 6.73171 0.421974 6.05354C0.692425 5.48349 1.32525 5.10561 2.11294 4.76219C2.92534 4.408 4.06155 4.02889 5.53116 3.53854L5.55825 3.5295L14.24 0.632717L14.2808 0.619093C15.0739 0.354443 15.723 0.137847 16.2278 0.0479018Z" fill="white"/>
</svg>
