<svg width="42" height="35" viewBox="0 0 42 35" fill="none" xmlns="http://www.w3.org/2000/svg">
<circle cx="21.6252" cy="7.1875" r="6.1875" stroke="#0A022A" stroke-width="1.5" stroke-linecap="round"/>
<path d="M34.0002 27.8125C34.0002 33.5079 27.3207 34 21.6252 34C15.9298 34 9.25024 33.5079 9.25024 27.8125C9.25024 22.1171 15.9298 17.5 21.6252 17.5C27.3207 17.5 34.0002 22.1171 34.0002 27.8125Z" stroke="#0A022A" stroke-width="1.5" stroke-linecap="round"/>
<path d="M32.7701 14.1204C35.8237 14.1204 38.2991 11.645 38.2991 8.59147C38.2991 5.5379 35.8237 3.0625 32.7701 3.0625" stroke="#0A022A" stroke-width="1.5" stroke-linecap="round"/>
<path d="M41.0635 25.75C41.0635 20.8696 37.4044 16.58 32.7701 14.1204" stroke="#0A022A" stroke-width="1.5" stroke-linecap="round"/>
<path d="M9.29355 14.1204C6.23998 14.1204 3.76458 11.645 3.76458 8.59147C3.76458 5.5379 6.23998 3.0625 9.29355 3.0625" stroke="#0A022A" stroke-width="1.5" stroke-linecap="round"/>
<path d="M1.00006 25.75C1.00006 20.8696 4.65919 16.58 9.29352 14.1204" stroke="#0A022A" stroke-width="1.5" stroke-linecap="round"/>
</svg>
