<svg width="39" height="44" viewBox="0 0 39 44" fill="none" xmlns="http://www.w3.org/2000/svg">
<path d="M32.5815 37.5327C25.3568 44.8224 13.6432 44.8225 6.41852 37.5327C2.80618 33.8878 1.00001 29.1106 1 24.3333C0.999993 19.5561 2.80617 14.7789 6.41853 11.134C6.41853 11.134 7.9376 14.9999 12.5626 17.3332C12.5626 12.6666 13.7189 5.66657 19.4674 1C24.125 5.66667 28.9608 7.48071 32.5815 11.134C36.1938 14.7789 38 19.5561 38 24.3334C38 29.1106 36.1938 33.8878 32.5815 37.5327Z" stroke="#0A022A" stroke-linecap="round" stroke-linejoin="round"/>
<path d="M14.5944 31.6163C17.3037 34.35 21.6963 34.35 24.4056 31.6163C25.7602 30.2495 26.4375 28.4581 26.4375 26.6667C26.4375 24.8752 25.7602 23.0837 24.4056 21.7168C23.0595 20.3586 21.2979 19.6752 19.5337 19.6667L17.1874 26.6665L12.5625 26.6667C12.5625 28.4581 13.2398 30.2495 14.5944 31.6163Z" stroke="#0A022A" stroke-linecap="round" stroke-linejoin="round"/>
</svg>
